<svg width="23" height="2" viewBox="0 0 23 2" fill="none" xmlns="http://www.w3.org/2000/svg">
<g id="Icon" clip-path="url(#clip0_1_670)">
<path id="Vector" d="M5.30073 1.90669C4.99904 1.91114 4.73505 1.90947 4.50878 1.90169C4.2825 1.89392 4.19451 1.88225 4.24479 1.86669L5.37616 1.57336L0.398128 1.36336C0.196996 1.35225 0.134142 1.34003 0.209567 1.32669C0.284991 1.31336 0.498695 1.30558 0.850677 1.30336L7.71433 1.26003L10.8067 0.990028C10.9576 0.976694 11.1839 0.970028 11.4856 0.970028C11.7873 0.970028 12.0135 0.976694 12.1644 0.990028L15.2568 1.26003L22.1959 1.30336C22.4976 1.30558 22.6861 1.31336 22.7616 1.32669C22.837 1.34003 22.7741 1.35225 22.573 1.36336L17.595 1.57336L18.7263 1.86669C18.7766 1.88225 18.6886 1.89392 18.4623 1.90169C18.2361 1.90947 17.9721 1.91114 17.6704 1.90669L11.4856 1.76336L5.30073 1.90669Z" fill="#FFCC4A"/>
</g>
<defs>
<clipPath id="clip0_1_670">
<rect width="22.6274" height="1" fill="white" transform="matrix(1 0 0 -1 0.200195 1.94)"/>
</clipPath>
</defs>
</svg>
