<svg width="169" height="166" viewBox="0 0 169 166" fill="none" xmlns="http://www.w3.org/2000/svg">
<g id="icon_100.svg" clip-path="url(#clip0_1_15)">
<path id="Vector" d="M55.4828 151.945C85.5836 151.945 109.985 127.639 109.985 97.6547C109.985 67.6711 85.5836 43.3645 55.4828 43.3645C25.382 43.3645 0.980469 67.6711 0.980469 97.6547C0.980469 127.639 25.382 151.945 55.4828 151.945Z" fill="#FFEBF5"/>
<path id="Vector_2" d="M73.8257 77.3145L64.8379 80.5731L72.6375 101.919L81.6253 98.6604L73.8257 77.3145Z" fill="#F1E302"/>
<path id="Vector_3" d="M105.03 20.8743C99.9729 30.266 98.6741 43.8391 102.428 57.7924C106.182 71.7456 114.119 82.8535 123.213 88.4679C115.197 83.7536 106.311 80.6935 97.0844 79.4697C87.8573 78.2459 78.4773 78.8834 69.5026 81.3444L65.5384 82.4324L65.5201 82.4397C60.4177 83.8016 54.6191 78.7239 52.5686 71.1012C50.518 63.4785 52.991 56.1927 58.0941 54.8308L58.113 54.826L62.092 53.793C71.1002 51.4553 79.544 47.3357 86.9205 41.6796C94.2969 36.0235 100.455 28.9465 105.029 20.8701L105.03 20.8743Z" fill="#FF3294"/>
<path id="Vector_4" d="M141.282 91.8063C156.589 87.7208 164.01 65.8681 157.858 42.997C151.706 20.1259 134.31 4.89721 119.003 8.98274C103.696 13.0683 96.2745 34.9209 102.427 57.792C108.579 80.6631 125.975 95.8918 141.282 91.8063Z" fill="white" stroke="#081F2D" stroke-width="2.036" stroke-miterlimit="10"/>
<path id="Vector_5" d="M132.371 58.6777L127.727 59.918C120.282 61.9046 113.105 64.7782 106.351 68.4764C103.098 61.5865 101.104 54.1738 100.463 46.5865C108.169 46.4263 115.827 45.3411 123.272 43.3545L127.918 42.1145L132.371 58.6777Z" fill="white" stroke="#081F2D" stroke-width="2.036" stroke-linejoin="round"/>
<path id="Vector_6" d="M132.456 58.9974C135.636 58.1487 137.178 53.6089 135.9 48.8576C134.622 44.1062 131.008 40.9425 127.828 41.7912C124.648 42.64 123.106 47.1797 124.385 51.9311C125.663 56.6824 129.276 59.8461 132.456 58.9974Z" fill="#FF3294"/>
<path id="Vector_7" d="M142.369 47.4472L149.95 45.4236" stroke="#F16091" stroke-width="3.393" stroke-miterlimit="10"/>
<path id="Vector_8" d="M140.537 65.3042L147.145 69.1045" stroke="#F16091" stroke-width="3.393" stroke-miterlimit="10"/>
<path id="Vector_9" d="M131.799 32.8217L135.614 26.2393" stroke="#F16091" stroke-width="3.393" stroke-miterlimit="10"/>
<path id="Vector_10" d="M49.137 131.819C49.8794 133.94 52.1021 140.587 49.8678 147.044C49.4942 148.123 48.5828 150.675 47.1401 150.776C45.37 150.9 43.7243 147.292 43.1659 145.818C41.3701 141.077 37.9864 125.409 34.3691 104.033C38.2881 109.665 45.0616 120.171 49.137 131.819Z" fill="#081F2D" stroke="#081F2D" stroke-width="2.036" stroke-linecap="round" stroke-linejoin="round"/>
<path id="Vector_11" d="M43.3408 92.1375C50.7527 84.0441 59.587 81.0629 62.646 80.0709M43.3408 92.1375L89.5097 122.216L89.51 122.221C89.5174 122.336 89.5582 122.962 88.8469 123.991C88.0975 125.075 86.488 126.64 83.0465 128.476L83.0461 128.477C76.9294 131.744 71.6515 132.349 66.0179 132.994C64.7342 133.141 63.432 133.29 62.0971 133.473H62.095C55.2129 134.433 48.4603 136.152 41.9612 138.596L34.4945 105.327C36.9244 102.924 38.2075 101.025 39.4077 99.1482C39.5148 98.9808 39.621 98.8139 39.7271 98.647C40.8589 96.8682 41.9866 95.0958 44.0781 92.813C51.3097 84.9163 59.9383 82.0003 62.9543 81.0222M43.3408 92.1375C41.1885 94.4866 40.0195 96.3242 38.885 98.1076M43.3408 92.1375L38.885 98.1076M62.646 80.0709C69.3225 77.9068 81.4298 75.7151 84.5231 80.3525M62.646 80.0709L62.9543 81.0222M84.5231 80.3525L83.6656 80.867C83.6697 80.8739 83.6738 80.8808 83.678 80.8878M84.5231 80.3525L83.6912 80.9074C83.6868 80.9009 83.6824 80.8943 83.678 80.8878M84.5231 80.3525C85.0206 81.1818 85.2523 82.1425 85.1874 83.1065C86.4416 84.1522 87.582 85.5631 87.8789 87.3461C88.2676 89.6593 87.1612 92.1321 85.2581 94.2148C84.7398 94.188 84.3771 94.1904 84.2557 94.1927L84.2751 95.1925L84.9467 95.9334C85.1924 95.7107 85.4315 95.4802 85.6625 95.2428L92.0476 99.2085M62.9543 81.0222C66.2361 79.9584 70.8451 78.8922 74.9843 78.6596C77.056 78.5431 78.9584 78.6388 80.4993 79.0187C82.0365 79.3977 83.0953 80.0286 83.678 80.8878M83.678 80.8878C84.062 81.5375 84.2403 82.2872 84.1897 83.0393L84.1554 83.548L84.547 83.8745C85.7081 84.8426 86.6507 86.0586 86.8924 87.5104L86.8927 87.5119C87.2621 89.71 85.982 92.2955 83.6035 94.4516L81.6262 96.244L84.2944 96.1923C84.53 96.1878 86.2231 96.1823 88.0188 96.6073C89.8792 97.0477 91.473 97.8591 92.0476 99.2085M38.885 98.1076C37.5372 100.226 36.238 102.269 33.3965 105.002L38.885 98.1076ZM92.0476 99.2085C92.274 99.7769 92.3393 100.396 92.2364 100.999C92.0198 102.143 91.0251 103.385 89.3075 104.55L87.8065 105.569L89.4691 106.294C90.0399 106.543 91.9181 107.44 92.6615 109.419C93.0869 110.575 93.0854 111.845 92.6574 113C92.3393 113.8 91.6417 114.56 90.5737 115.237C89.5075 115.912 88.1379 116.46 86.6049 116.855L83.9159 117.548L86.4292 118.729C87.0225 119.007 87.5701 119.374 88.0535 119.815C88.6213 120.343 89.4413 121.147 89.5096 122.215L92.0476 99.2085Z" stroke="black" stroke-width="2"/>
<path id="Vector_12" d="M50.7578 118.465C52.9143 116.963 54.7552 115.055 56.177 112.849C58.2348 109.608 59.3377 105.857 59.3599 102.023" stroke="#081F2D" stroke-width="2.036" stroke-miterlimit="10"/>
<path id="Vector_13" d="M79.4242 127.553C77.8745 127.245 73.5254 126.381 72.6494 123.43C72.399 122.512 72.4648 121.536 72.8363 120.66C74.6838 116.535 84.3846 115.07 88.7324 119.083C89.1821 119.498 90.4157 120.57 90.5092 122.155C90.6326 124.245 88.7028 125.8 88.1908 126.212C85.1196 128.686 80.9588 127.858 79.4242 127.553Z" fill="#FCFBD9"/>
<path id="Vector_14" d="M74.4626 108.65C73.8624 108.973 73.3391 109.421 72.9283 109.963C71.6404 111.707 71.7329 114.334 72.4233 115.637C74.9162 120.344 91.2636 119.242 93.5937 113.358C94.1042 111.973 94.1077 110.454 93.6036 109.067C92.7311 106.768 90.5595 105.714 89.871 105.38C84.6305 102.837 78.5357 106.321 74.4626 108.65Z" fill="#FCFBD9"/>
<path id="Vector_15" d="M73.2182 99.0563C71.8921 100.158 70.1419 101.655 70.1155 103.761C70.0937 105.512 71.2759 106.821 71.4969 107.054C75.9411 111.776 92.0961 107.217 93.2266 101.177C93.369 100.386 93.2821 99.5714 92.976 98.8282C91.5355 95.4471 85.6011 95.2387 84.2766 95.1923C83.8034 95.1747 78.0305 95.0573 73.2182 99.0563Z" fill="#FCFBD9"/>
<path id="Vector_16" d="M78.4444 85.6739C77.6677 85.6605 73.0407 85.6534 70.1295 89.1741C69.806 89.5654 66.8088 93.2883 68.327 96.2781C69.7042 98.9894 73.8033 99.1395 74.4654 99.1638C81.0732 99.4058 88.8144 92.9194 87.8799 87.3466C87.7862 86.7975 87.613 86.265 87.3659 85.7654C86.9993 85.0379 86.5183 84.3734 85.9411 83.7971" fill="#FCFBD9"/>
<path id="Vector_17" d="M79.4189 127.553C75.9401 127.248 73.2888 125.658 72.6441 123.431C72.3929 122.512 72.4587 121.537 72.8311 120.66C73.3367 119.531 74.4299 118.602 75.8405 117.929" stroke="#081F2D" stroke-width="2.036" stroke-miterlimit="10"/>
<path id="Vector_18" d="M74.4597 108.65C73.8601 108.974 73.3371 109.422 72.9257 109.964C71.5857 111.756 71.7509 114.373 72.4207 115.638C74.1966 118.991 83.0055 119.396 88.7665 117.223" stroke="#081F2D" stroke-width="2.036" stroke-miterlimit="10"/>
<path id="Vector_19" d="M73.2136 99.0566C72.8047 99.3164 70.1242 101.073 70.1113 103.761C70.1507 104.99 70.6416 106.161 71.4908 107.054C75.2147 111.011 87.1604 108.451 91.601 103.964" stroke="#081F2D" stroke-width="2.036" stroke-miterlimit="10"/>
<path id="Vector_20" d="M68.9155 90.981C68.1274 92.4246 67.4117 94.4831 68.3231 96.2774C69.7003 98.9884 73.7994 99.1385 74.4615 99.1628C78.7062 99.3183 83.4183 96.6988 85.9982 93.326" stroke="#081F2D" stroke-width="2.036" stroke-miterlimit="10"/>
<g id="Mask group">
<mask id="mask0_1_15" style="mask-type:luminance" maskUnits="userSpaceOnUse" x="33" y="77" width="53" height="28">
<g id="Group">
<path id="Vector_21" d="M56.5785 99.1272C57.9355 97.0325 60.2614 94.1371 63.993 92.332C67.5553 90.6088 69.1163 91.468 75.3061 89.5851C79.6205 88.2731 84.4881 86.7323 85.1364 83.4974C85.3134 82.4092 85.0953 81.2937 84.5212 80.3512C81.4298 75.7137 69.3232 77.9048 62.647 80.0709C59.5854 81.0629 50.7533 84.0459 43.3421 92.1349C38.629 97.2785 38.631 99.9685 33.3984 104.999" fill="white"/>
</g>
</mask>
<g mask="url(#mask0_1_15)">
<path id="Vector_22" d="M85.1364 83.4975L87.0974 83.8905L87.1046 83.8547L87.1104 83.8187L85.1364 83.4975ZM84.5212 80.3513L86.2292 79.3108L86.208 79.2759L86.1853 79.2419L84.5212 80.3513ZM58.2571 100.215C59.5143 98.2739 61.5943 95.7141 64.8639 94.1325L63.1221 90.5317C58.9285 92.5603 56.3567 95.7912 54.9 98.0399L58.2571 100.215ZM64.8639 94.1325C66.3658 93.406 67.4037 93.2247 68.9544 92.9974C70.5816 92.7588 72.6427 92.4859 75.8882 91.4986L74.7242 87.6717C71.7798 88.5673 69.9654 88.8064 68.3741 89.0397C66.7063 89.2842 65.1825 89.535 63.1221 90.5317L64.8639 94.1325ZM75.8882 91.4986C78.0111 90.853 80.4882 90.0908 82.5174 89.0376C84.4847 88.0165 86.5863 86.4408 87.0974 83.8905L83.1754 83.1045C83.0382 83.7892 82.3818 84.6013 80.6747 85.4873C79.0294 86.3412 76.9157 87.0053 74.7242 87.6717L75.8882 91.4986ZM87.1104 83.8187C87.3642 82.2589 87.0514 80.6605 86.2292 79.3108L82.8131 81.3917C83.1392 81.9271 83.2627 82.5597 83.1623 83.1764L87.1104 83.8187ZM86.1853 79.2419C85.0255 77.5021 83.1418 76.5794 81.2169 76.1047C79.2757 75.6259 77.0448 75.5376 74.8161 75.663C70.351 75.914 65.481 77.0488 62.0297 78.1686L63.2634 81.9736C66.4883 80.9273 71.0106 79.8833 75.0407 79.6567C77.0596 79.5431 78.8522 79.6413 80.2591 79.9883C81.6822 80.3393 82.4711 80.8817 82.857 81.4606L86.1853 79.2419ZM62.0297 78.1686C58.8812 79.1887 49.6387 82.302 41.8674 90.7839L44.8167 93.4861C51.8679 85.7901 60.2889 82.9374 63.2634 81.9736L62.0297 78.1686ZM41.8674 90.7839C39.3769 93.502 38.113 95.6031 36.8799 97.5323C35.6811 99.4078 34.4707 101.194 32.0123 103.557L34.7845 106.441C37.5587 103.774 38.9636 101.7 40.2502 99.6866C41.5026 97.7273 42.5941 95.9117 44.8167 93.4861L41.8674 90.7839Z" fill="black"/>
</g>
</g>
<path id="Vector_23" d="M56.5742 99.1276C57.9312 97.0329 60.257 94.1376 63.989 92.3321C67.5513 90.6089 69.112 91.4681 75.3018 89.5856C79.6162 88.2736 84.4838 86.7324 85.1337 83.4979C85.3109 82.4096 85.0928 81.2941 84.5185 80.3516" stroke="#081F2D" stroke-width="2.036" stroke-miterlimit="10"/>
<path id="Vector_24" d="M4.10156 115.81L20.4583 165.02C29.3675 159.906 35.7819 156.742 39.9739 154.568C42.5131 153.25 45.0425 151.954 47.5622 150.679C47.5429 150.685 47.4841 150.704 47.4212 150.72C47.3711 150.737 47.3197 150.75 47.2676 150.758C47.2253 150.767 47.1823 150.773 47.1391 150.774C45.3722 150.9 43.7258 147.294 43.1665 145.818C41.3704 141.078 37.9857 125.411 34.3678 104.035L4.10156 115.81Z" fill="white"/>
<path id="Vector_25" d="M40.6775 154.203C37.4383 151.731 35.1379 148.237 34.1529 144.292L25.0098 107.675" stroke="#081F2D" stroke-width="2.036" stroke-miterlimit="10"/>
<path id="Vector_26" d="M49.8678 147.044C49.4942 148.123 48.5828 150.675 47.1401 150.776C45.37 150.9 43.7243 147.292 43.1659 145.818C41.3701 141.077 37.9864 125.409 34.3691 104.033" stroke="#081F2D" stroke-width="2.036" stroke-linecap="round" stroke-linejoin="round"/>
</g>
<defs>
<clipPath id="clip0_1_15">
<rect width="169" height="165" fill="white" transform="translate(0 0.669922)"/>
</clipPath>
</defs>
</svg>
